<svg xmlns="http://www.w3.org/2000/svg" xmlns:xlink="http://www.w3.org/1999/xlink" viewBox="0 0 100 125" version="1.1" x="0px" y="0px"><title>ic13</title><desc>Created with Sketch.</desc><g stroke="none" stroke-width="1" fill="none" fill-rule="evenodd"><path d="M36.4601137,40.0331181 C33.5325707,45.0333002 28.1006807,48.3946871 21.8791747,48.3946871 C12.556935,48.3946871 5,40.853468 5,31.5506155 C5,25.3420481 8.36839204,19.9214547 13.3789945,17 L36.4601137,40.0331181 Z M86.6214826,17 C91.631608,19.9214547 95,25.3420481 95,31.5506155 C95,40.853468 87.4425878,48.3946871 78.1203482,48.3946871 C71.8988422,48.3946871 66.4674293,45.0333002 63.5398863,40.0335943 L86.6214826,17 Z M82.1948621,64.058208 C84.4348905,64.058208 86.2502916,65.8703098 86.2502916,68.1052036 C86.2502916,69.1045734 85.8862571,70.0172899 85.2846222,70.7228955 L75.1107424,88.2363878 C74.598804,89.1186329 73.6541275,89.6604542 72.6340677,89.6604542 L72.5997159,89.6604542 C71.5667741,89.6480751 70.6206663,89.0814957 70.1239954,88.1768732 L61.3227592,72.1521991 L38.6772408,72.1521991 L29.8755275,88.1768732 C29.3788566,89.0814957 28.4327488,89.6480751 27.399807,89.6604542 L27.3654552,89.6604542 C26.3449183,89.6604542 25.4007188,89.1186329 24.8887805,88.2363878 L14.716332,70.7243239 C14.11422,70.0177661 13.7487542,69.1045734 13.7487542,68.1052036 C13.7487542,65.8703098 15.5646324,64.058208 17.8041837,64.058208 L82.1948621,64.058208 Z" fill="#FAA0A0"/></g><text x="0" y="115" fill="#FAA0A0" font-size="5px" font-weight="bold" font-family="'Helvetica Neue', Helvetica, Arial-Unicode, Arial, Sans-serif">Mood Check:</text><text x="0" y="120" fill="#FAA0A0" font-size="5px" font-weight="bold" font-family="'Helvetica Neue', Helvetica, Arial-Unicode, Arial, Sans-serif">Red Vampire</text></svg>