<svg width="46" height="40" viewBox="0 0 46 40" fill="none" xmlns="http://www.w3.org/2000/svg">
<g id="&#240;&#159;&#166;&#134; icon &#34;artstation&#34;">
<path id="Vector" d="M0 30.838L3.83865 37.4756H3.84055C4.22303 38.2345 4.80866 38.8723 5.53221 39.318C6.25576 39.7637 7.08883 39.9998 7.93864 40H33.423L28.1356 30.838H0ZM45.4502 30.8853C45.4502 29.9688 45.1794 29.1147 44.7155 28.3969L29.7851 2.44106C29.3945 1.70403 28.8105 1.08734 28.0958 0.657257C27.3811 0.227174 26.5627 -4.92316e-05 25.7286 8.00099e-09H17.8373L40.9014 39.9602L44.5374 33.6635C45.2533 32.4572 45.4502 31.9231 45.4502 30.8853ZM24.3746 24.3291L14.0668 6.47477L3.75722 24.3291H24.3746Z" fill="white"/>
</g>
</svg>
