<svg width="50" height="32" viewBox="0 0 50 32" fill="none" xmlns="http://www.w3.org/2000/svg">
<g id="&#240;&#159;&#166;&#134; icon &#34;behance&#34;">
<path id="Vector" d="M14.4597 0C15.9228 0 17.2525 0.125049 18.4613 0.391818C19.6638 0.662755 20.6913 1.07958 21.5562 1.66314C22.4107 2.2467 23.0839 3.01783 23.557 3.99737C24.0259 4.97691 24.2656 6.18571 24.2656 7.60293C24.2656 9.14519 23.9113 10.4373 23.2089 11.4794C22.5045 12.5215 21.4645 13.3551 20.0786 14.0221C21.9668 14.5639 23.3632 15.5226 24.2927 16.8773C25.2264 18.2529 25.6786 19.8993 25.6786 21.7959C25.6786 23.359 25.4077 24.6928 24.8241 25.8183C24.2406 26.9645 23.4278 27.9024 22.4065 28.6318C21.4061 29.3571 20.2182 29.8823 18.926 30.2304C17.6283 30.5816 16.2898 30.7596 14.9453 30.7597H0V0.0145899H14.4597V0ZM35.3052 25.3473C36.2223 26.2393 37.5415 26.6873 39.2526 26.6873C40.4822 26.6873 41.5451 26.3789 42.4413 25.7557C43.325 25.1513 43.8585 24.4844 44.0669 23.7967H49.4607C48.6208 26.4643 47.2765 28.3818 45.5008 29.528C43.7293 30.6951 41.5743 31.2579 39.0817 31.2579C37.3373 31.2579 35.7804 30.9869 34.3465 30.4242C32.9979 29.893 31.7765 29.0834 30.7618 28.0483C29.7691 26.9852 29.0051 25.7296 28.5172 24.3594C27.9899 22.9213 27.7398 21.3374 27.7398 19.6284C27.7398 17.9548 28.0212 16.4188 28.5797 14.9808C29.1425 13.5219 29.9219 12.3131 30.914 11.2502C31.9456 10.1873 33.1294 9.38486 34.532 8.7617C35.9347 8.13855 37.4498 7.85927 39.1588 7.85927C41.0554 7.85927 42.681 8.20107 44.1191 8.94928C45.48 9.64482 46.6635 10.643 47.5787 11.8671C48.4957 13.0884 49.1418 14.4931 49.5378 16.077C49.9338 17.6401 50.0588 19.2866 49.9755 21.0373H33.9485C33.9485 22.7879 34.532 24.4386 35.4282 25.341L35.2615 25.4035L35.3052 25.3473ZM13.9637 25.4515C14.6244 25.4515 15.2559 25.3889 15.8519 25.2576C16.4563 25.1326 16.994 24.9138 17.4421 24.6324C17.8798 24.351 18.2549 23.9488 18.5259 23.4173C18.7968 22.9171 18.9219 22.2294 18.9219 21.4166C18.9219 19.8535 18.4634 18.728 17.588 18.0403C16.6918 17.3734 15.5247 17.0399 14.0658 17.0399H6.7526V25.4806H13.9637V25.4181V25.4515ZM42.3225 13.6761C41.5889 12.8737 40.3634 12.4423 38.8691 12.4423C37.8937 12.4423 37.0872 12.5965 36.439 12.9383C35.8096 13.2509 35.2927 13.6678 34.8968 14.1679C34.5008 14.6681 34.2361 15.1683 34.0798 15.7311C33.9235 16.2729 33.8297 16.7731 33.7984 17.2108H43.7231C43.5772 15.6477 43.0353 14.5014 42.3059 13.6886V13.7094L42.3225 13.6761ZM13.5886 12.3944C14.7849 12.3944 15.7769 12.1151 16.5585 11.5357C17.3379 10.973 17.7131 10.0351 17.7131 8.74712C17.7131 8.03017 17.5672 7.44453 17.3379 6.98394C17.067 6.52543 16.7127 6.17112 16.2958 5.91686C15.8582 5.65843 15.358 5.47919 14.7953 5.38124C14.218 5.27423 13.6317 5.22259 13.0446 5.22701H6.73176V12.3964H13.5886V12.3944ZM32.55 2.06121H44.9881V5.09154H32.55V2.0362V2.05704V2.06121Z" fill="white"/>
</g>
</svg>
