<svg width="29" height="40" viewBox="0 0 29 40" fill="none" xmlns="http://www.w3.org/2000/svg">
<g id="&#240;&#159;&#166;&#134; icon &#34;protonmail&#34;">
<path id="Vector" d="M14.2258 33.9197C14.2258 33.9197 12.399 33.7397 10.9673 32.7446C9.53384 31.7512 0 24.9309 0 24.9309V38.4282C0 38.4282 0.0800048 40 1.80843 40H26.6431C28.3698 40 28.4515 38.4299 28.4515 38.4299V24.9292C28.4515 24.9292 18.9127 31.7496 17.4843 32.7463C16.0509 33.738 14.2258 33.9197 14.2258 33.9197ZM14.2258 0.00120326C14.2258 0.00120326 2.43346 -0.385484 0 12.7052V21.6224C0 21.6224 0.100006 22.5757 2.78348 24.5142C5.46196 26.4509 12.4057 31.9079 14.2291 31.9079C16.0425 31.9079 22.9862 26.4526 25.6714 24.5125C28.3498 22.5724 28.4515 21.6174 28.4515 21.6174V12.7002C26.0181 -0.382151 14.2258 0.00453677 14.2258 0.00453677V0.00120326ZM22.3029 17.5621H6.15199V12.7052C7.79208 6.20487 14.2258 6.11486 14.2258 6.11486C14.2258 6.11486 20.6644 6.20487 22.3029 12.7052V17.5621Z" fill="white"/>
</g>
</svg>
