<?xml version="1.0" encoding="UTF-8"?>
<svg width="1200pt" height="1200pt" version="1.1" viewBox="0 0 1200 1200" xmlns="http://www.w3.org/2000/svg">
 <path d="m750 300h-300c-82.836 0-150 67.164-150 150v300c0 82.836 67.164 150 150 150h300c82.836 0 150-67.164 150-150v-300c0-82.836-67.164-150-150-150zm-284.48 336.17v-133.14c0-20.719 16.781-37.5 37.5-37.5h133.14c16.707 0 25.07 20.195 13.258 32.008l-151.89 151.89c-11.812 11.812-32.008 3.4492-32.008-13.258zm268.95 60.809c0 20.719-16.781 37.5-37.5 37.5h-133.12c-16.707 0-25.07-20.195-13.258-32.008l151.88-151.88c11.812-11.812 32.008-3.4492 32.008 13.258z"/>
</svg>
