<?xml version="1.0" encoding="UTF-8"?>
<svg width="1200pt" height="1200pt" version="1.1" viewBox="0 0 1200 1200" xmlns="http://www.w3.org/2000/svg">
 <path d="m300 750v-300c0-57.168 23.398-108.94 61.086-146.32-67.125 14.926-117.34 74.719-117.34 146.32v300c0 71.605 50.211 131.4 117.34 146.32-37.688-37.387-61.086-89.156-61.086-146.32z"/>
 <path d="m806.25 300h-300c-82.836 0-150 67.164-150 150v300c0 82.836 67.164 150 150 150h300c82.836 0 150-67.164 150-150v-300c0-82.836-67.164-150-150-150zm26.512 176.51-300 300c-14.645 14.645-38.383 14.645-53.023 0-14.645-14.645-14.645-38.383 0-53.023l300-300c14.645-14.645 38.383-14.645 53.023 0 14.645 14.645 14.645 38.379 0 53.023z"/>
</svg>
