<?xml version="1.0" encoding="UTF-8"?>
<svg width="1200pt" height="1200pt" version="1.1" viewBox="0 0 1200 1200" xmlns="http://www.w3.org/2000/svg">
 <path d="m750 356.25c51.695 0 93.75 42.055 93.75 93.75v300c0 51.695-42.055 93.75-93.75 93.75h-300c-51.695 0-93.75-42.055-93.75-93.75v-300c0-51.695 42.055-93.75 93.75-93.75h300m0-56.25h-300c-82.836 0-150 67.164-150 150v300c0 82.836 67.164 150 150 150h300c82.836 0 150-67.164 150-150v-300c0-82.836-67.164-150-150-150z"/>
 <path d="m476.51 776.51c-14.645 14.645-38.383 14.645-53.023 0-14.645-14.645-14.645-38.383 0-53.023l300-300c14.645-14.645 38.383-14.645 53.023 0 14.645 14.645 14.645 38.383 0 53.023z"/>
</svg>
